<?xml version="1.0" encoding="utf-8"?>
<!-- Generator: Adobe Illustrator 27.4.0, SVG Export Plug-In . SVG Version: 6.00 Build 0)  -->
<svg version="1.1" id="Layer_1" xmlns="http://www.w3.org/2000/svg" xmlns:xlink="http://www.w3.org/1999/xlink" x="0px" y="0px"
	 viewBox="0 0 228.92 71.75" style="enable-background:new 0 0 228.92 71.75;" xml:space="preserve">
<style type="text/css">
	.st0{fill:#8B8432;}
	.st1{fill:#1A75A7;}
</style>
<g>
	<g>
		<path class="st0" d="M70.26,25.99c-0.29,2.18-0.84,4.14-1.67,5.9c-1.07,2.28-2.36,3.46-3.86,3.46c-1.67,0-2.97-2.02-3.89-6.1
			c-0.52,1.3-1.47,2.77-2.82,4.37c-1.38,1.63-2.36,2.45-3,2.45c-0.35,0-0.69-0.36-1.04-1.01c-0.32-0.52-0.55-1.04-0.66-1.63
			c-0.75-3.13-1.12-5.77-1.12-7.86c0-1.5,0.12-2.97,0.37-4.34c0.12-0.69,0.43-1.04,0.89-1.04c0.72,0,1.09,0.68,1.09,2.02
			c0,0.26-0.12,0.75-0.29,1.5c-0.2,0.75-0.29,1.34-0.29,1.76c0,3.62,0.43,6.36,1.3,8.25c0.92-0.52,1.87-1.5,2.85-3
			c0.95-1.5,1.61-3.03,2.02-4.6c0.29-1.24,0.66-1.89,1.12-1.89c0.37,0,0.63,0.46,0.78,1.34c0.69,5.09,1.58,7.63,2.71,7.63
			c0.55,0,1.18-0.49,1.9-1.5c0.63-0.91,1.15-2.25,1.53-4.01c0.29-1.53,0.46-3.1,0.46-4.73c0-0.13-0.03-0.36-0.09-0.65
			c-0.06-0.29-0.06-0.52-0.06-0.65c0-0.78,0.29-1.17,0.92-1.17c0.4,0,0.72,0.36,0.89,1.04c0.17,0.75,0.29,1.4,0.29,1.96
			C70.61,24.88,70.49,25.73,70.26,25.99z"/>
		<path class="st0" d="M82.74,35.31c-0.95,0-1.47-1.17-1.53-3.46l-0.2-5.77c-2.74,2.09-4.55,4.11-5.47,6.1
			c-0.23,0.52-0.43,1.01-0.6,1.5c-0.32,0.78-0.55,1.21-0.69,1.21c-0.35,0-0.63-0.16-0.89-0.49c-0.26-0.33-0.37-0.65-0.37-1.01
			c0-0.06,0-0.26,0.06-0.59c0-0.33,0.03-0.52,0.03-0.59c0-0.06,0-0.36,0-0.81c-0.03-0.39-0.03-0.69-0.03-0.82
			c0-2.22,0.2-4.89,0.63-7.99c0-0.2,0.37-2.67,1.12-7.4l0.55-3.65c0.12-0.72,0.2-1.14,0.26-1.3c0.09-0.26,0.23-0.42,0.43-0.42
			c0.29,0,0.58,0.2,0.81,0.55c0.23,0.39,0.35,0.78,0.35,1.17c0,0.1-0.14,0.95-0.4,2.54c-1.15,6.52-1.87,11.71-2.22,15.59
			c0.92-1.27,2.13-2.61,3.63-4.01c1.7-1.57,2.85-2.35,3.43-2.35c0.35,0,0.63,0.2,0.89,0.55c0.23,0.39,0.35,0.78,0.35,1.24
			c0,0.23-0.03,0.68-0.09,1.37c-0.06,0.72-0.06,1.27-0.06,1.63c0,1.01,0.06,2.51,0.23,4.53c0.06,0.52,0.12,1.21,0.23,2.09
			C83.17,35.12,83.03,35.31,82.74,35.31z"/>
		<path class="st0" d="M89.37,25.59c-0.66,3.07-0.98,5.45-0.98,7.14c0.37,0.46,0.58,0.98,0.58,1.5c0,0.46-0.2,0.68-0.55,0.68
			c-0.46,0-0.86-0.42-1.24-1.24c-0.29-0.65-0.43-1.47-0.43-2.51c0-0.85,0.37-3.49,1.18-7.99c-0.06-0.39-0.09-0.65-0.09-0.75
			c0-0.29,0.14-0.55,0.43-0.75c1.07,0.07,1.61,0.65,1.61,1.7C89.75,24.03,89.57,24.75,89.37,25.59z M90.49,13.04
			c-1.12-0.23-1.67-0.91-1.67-2.05c0-0.2-0.03-0.39-0.03-0.62c0.06-0.72,0.46-1.21,1.21-1.5c0.95,0.13,1.44,0.85,1.44,2.22
			C91.45,12.32,91.13,12.98,90.49,13.04z"/>
		<path class="st0" d="M103.72,29.93c-0.12,1.14-0.23,2.61-0.4,4.37c-0.06,0.33-0.17,0.52-0.4,0.52c-0.32,0-0.6-0.16-0.84-0.46
			c-0.23-0.33-0.35-0.65-0.35-1.01c0.03-0.46,0.09-1.17,0.2-2.09l0.49-5.51c-2.74,2.22-4.64,4.5-5.68,6.85
			c-0.17,0.46-0.32,0.88-0.49,1.3c-0.2,0.46-0.35,0.72-0.46,0.72c-0.58,0-0.95-0.39-1.18-1.17c-0.35-1.17-0.52-2.67-0.52-4.57
			c0-1.99,0.29-4.66,0.92-8.02c0.06-0.33,0.17-0.52,0.4-0.52c0.32,0,0.6,0.2,0.89,0.52c0.23,0.36,0.35,0.75,0.35,1.14
			c-0.06,0.33-0.14,0.68-0.23,1.14c-0.46,2.25-0.66,4.7-0.66,7.34c2.28-3.36,4.58-5.84,6.94-7.43c0.35,0.03,0.63,0.2,0.89,0.46
			c0.26,0.33,0.4,0.65,0.4,0.98C104.01,25.95,103.89,27.78,103.72,29.93z"/>
		<path class="st0" d="M110.2,25.59c-0.66,3.07-0.98,5.45-0.98,7.14c0.37,0.46,0.58,0.98,0.58,1.5c0,0.46-0.2,0.68-0.55,0.68
			c-0.46,0-0.86-0.42-1.24-1.24c-0.29-0.65-0.43-1.47-0.43-2.51c0-0.85,0.37-3.49,1.18-7.99c-0.06-0.39-0.09-0.65-0.09-0.75
			c0-0.29,0.14-0.55,0.43-0.75c1.07,0.07,1.61,0.65,1.61,1.7C110.58,24.03,110.41,24.75,110.2,25.59z M111.33,13.04
			c-1.12-0.23-1.67-0.91-1.67-2.05c0-0.2-0.03-0.39-0.03-0.62c0.06-0.72,0.46-1.21,1.21-1.5c0.95,0.13,1.44,0.85,1.44,2.22
			C112.28,12.32,111.96,12.98,111.33,13.04z"/>
		<path class="st0" d="M124.55,29.93c-0.12,1.14-0.23,2.61-0.4,4.37c-0.06,0.33-0.17,0.52-0.4,0.52c-0.32,0-0.6-0.16-0.84-0.46
			c-0.23-0.33-0.35-0.65-0.35-1.01c0.03-0.46,0.09-1.17,0.2-2.09l0.49-5.51c-2.74,2.22-4.64,4.5-5.68,6.85
			c-0.17,0.46-0.32,0.88-0.49,1.3c-0.2,0.46-0.35,0.72-0.46,0.72c-0.58,0-0.95-0.39-1.18-1.17c-0.35-1.17-0.52-2.67-0.52-4.57
			c0-1.99,0.29-4.66,0.92-8.02c0.06-0.33,0.17-0.52,0.4-0.52c0.32,0,0.6,0.2,0.89,0.52c0.23,0.36,0.35,0.75,0.35,1.14
			c-0.06,0.33-0.14,0.68-0.23,1.14c-0.46,2.25-0.66,4.7-0.66,7.34c2.28-3.36,4.58-5.84,6.94-7.43c0.35,0.03,0.63,0.2,0.89,0.46
			c0.26,0.33,0.4,0.65,0.4,0.98C124.84,25.95,124.72,27.78,124.55,29.93z"/>
		<path class="st0" d="M136.51,25.99c-0.14,0.26-0.26,1.4-0.35,3.36c-0.14,3.1-0.72,5.54-1.76,7.43s-2.59,3.29-4.61,4.27
			c-0.81,0.36-1.58,0.55-2.36,0.55c-0.63,0-0.95-0.36-0.95-1.08c0-0.33,0.14-0.65,0.43-0.95c0.29-0.33,0.58-0.46,0.86-0.46
			c0.06,0,0.29,0.07,0.66,0.2c3.69-1.04,5.65-4.04,5.93-9c-1.12,1.27-2.3,1.89-3.57,1.89c-0.89,0-1.58-0.36-2.1-1.14
			c-0.52-0.72-0.75-1.66-0.75-2.84c0-2.02,0.58-3.88,1.79-5.64c1.27-1.89,2.82-2.87,4.67-2.87c1.58,0,2.42,1.21,2.48,3.62
			c0.17,0.16,0.26,0.39,0.26,0.68C137.14,24.49,136.91,25.14,136.51,25.99z M134.69,22.59c-0.26-0.36-0.55-0.55-0.89-0.55
			c-1.07,0-2.02,0.69-2.85,1.99c-0.86,1.37-1.27,2.74-1.27,4.17c0,0.59,0.12,1.08,0.35,1.47c0.23,0.42,0.58,0.62,0.98,0.62
			c2.02,0,3.28-1.76,3.77-5.28c0.03-0.39,0.14-0.65,0.35-0.85C135.07,23.51,134.93,22.99,134.69,22.59z"/>
	</g>
	<g>
		<path class="st1" d="M140.42,47.64c1.9-0.49,3.69-1.01,5.36-1.57c1.68-0.56,3.26-1.16,4.75-1.8c1.49-0.64,2.93-1.34,4.31-2.09
			c1.38-0.75,2.75-1.54,4.11-2.36c0.56-0.4,1.08-0.62,1.55-0.67c0.31-0.03,0.47,0.12,0.46,0.47c0.1,0.23,0.19,0.36,0.27,0.37
			c0.08,0.02,0.15,0.32,0.2,0.9c0.05,0.53-0.03,1.06-0.22,1.56c-0.19,0.51-0.38,0.92-0.55,1.23c-0.31,0.52-0.9,1.11-1.75,1.76
			c-0.86,0.65-1.89,1.33-3.09,2.04c-1.21,0.71-2.49,1.43-3.86,2.15c-1.36,0.73-2.7,1.4-4.02,2.02c-1.31,0.62-2.51,1.17-3.6,1.65
			c-1.09,0.48-1.94,0.82-2.56,1.03c-0.35,0.13-0.69,0.03-1.04-0.3c-0.35-0.33-0.62-0.53-0.82-0.61c-0.58-0.28-0.92-0.69-1.03-1.21
			c-0.1-0.53-0.33-1.16-0.67-1.91c-0.38-0.69-0.66-1.43-0.84-2.22c-0.19-0.79-0.33-1.56-0.44-2.34c-0.25-1.98-0.42-3.96-0.51-5.96
			c-0.09-1.99-0.19-4.05-0.29-6.16c-0.1-2.12-0.25-4.3-0.44-6.55c-0.19-2.25-0.5-4.65-0.92-7.2c0.06-0.25,0.2-0.29,0.44-0.12
			c0.23,0.17,0.47,0.29,0.71,0.37c0.2,0.08,0.39,0.14,0.55,0.2c0.16,0.06,0.31,0.2,0.45,0.43c0.47,0.83,0.9,2.32,1.3,4.45
			s0.75,4.53,1.03,7.19c0.29,2.66,0.53,5.36,0.73,8.1C140.18,43.2,140.33,45.59,140.42,47.64z"/>
		<path class="st1" d="M171.19,25.81l-0.9,1.34c0.31-0.08,0.78-0.24,1.42-0.48c0.63-0.23,1.26-0.39,1.89-0.45
			c0.48,0.05,0.89,0.2,1.23,0.46c0.34,0.26,0.58,0.79,0.73,1.61c0.26,1.15,0.6,2.3,1.04,3.45c0.43,1.15,0.79,2.3,1.07,3.45
			c0.28,1.14,0.36,2.25,0.25,3.31c-0.11,1.06-0.56,2.05-1.35,2.96c-0.76,1.79-1.63,3.31-2.61,4.55c-0.98,1.25-2.05,2.03-3.22,2.34
			c-0.77,0.22-1.65,0.18-2.63-0.14c-0.98-0.31-1.73-0.96-2.25-1.93c-0.11,0.11-0.21,0.13-0.29,0.07c-0.09-0.06-0.17-0.14-0.26-0.23
			c-0.09-0.09-0.16-0.1-0.21-0.05c-0.06,0.05-0.11,0.03-0.15-0.06c-0.05-0.14-0.09-0.33-0.11-0.58l-0.01-0.15l-0.01-0.14
			c-0.11-1.7-0.13-3.42-0.06-5.16c0.07-1.74,0.26-3.45,0.57-5.12c0.31-1.67,0.77-3.26,1.37-4.76c0.6-1.5,1.43-2.87,2.47-4.1
			c0.37-0.33,0.79-0.47,1.27-0.42c0.08-0.01,0.18-0.02,0.29-0.03C170.86,25.55,171.01,25.63,171.19,25.81z M169.61,30.95
			c-0.24-0.02-0.39-0.11-0.44-0.25c-0.05-0.14-0.06-0.33-0.02-0.55c0.04-0.22,0.1-0.49,0.17-0.79c0.07-0.3,0.1-0.59,0.07-0.89
			c-0.75,1-1.29,2.18-1.63,3.54c-0.34,1.35-0.55,2.73-0.63,4.13c-0.08,1.4-0.05,2.75,0.08,4.06c0.13,1.3,0.28,2.44,0.44,3.4
			c0.15,0.82,0.34,1.47,0.58,1.96c0.24,0.49,0.56,0.76,0.96,0.82c0.44,0.1,1-0.1,1.67-0.61c0.97-0.73,1.72-1.69,2.25-2.87
			c0.53-1.18,0.94-2.42,1.23-3.72c0.1-0.69,0.16-1.52,0.17-2.47c0.02-0.95-0.09-1.83-0.32-2.64c-0.29-1.09-0.86-1.85-1.71-2.28
			C171.65,31.37,170.69,31.09,169.61,30.95z"/>
		<path class="st1" d="M190.68,20.89c0.45,1.13,1.03,2.8,1.74,5.03c0.71,2.23,1.41,4.65,2.11,7.26c0.7,2.62,1.34,5.26,1.93,7.94
			c0.59,2.68,0.97,5.03,1.14,7.07c0.14,1.6,0.15,3.2,0.03,4.8c-0.12,1.6-0.71,3.19-1.76,4.76c-0.57,0.79-1.25,1.75-2.04,2.88
			c-0.8,1.13-1.67,2.18-2.61,3.16c-0.44,0.43-0.89,0.85-1.35,1.24c-0.46,0.39-0.92,0.71-1.37,0.95c-0.25-0.56-0.33-0.93-0.24-1.11
			c0.08-0.18,0.16-0.52,0.24-1.01c0.08-0.45,0.12-1.06,0.11-1.84c-0.01-0.78,0.13-1.36,0.42-1.73c0.35-0.48,0.84-1.09,1.45-1.83
			c0.61-0.75,1.2-1.53,1.76-2.34c0.56-0.81,1.05-1.61,1.46-2.38c0.41-0.78,0.63-1.46,0.66-2.05c0-0.88-0.04-1.84-0.13-2.88
			c-0.09-1.04-0.23-2.1-0.42-3.18c-0.19-1.08-0.41-2.16-0.66-3.23c-0.25-1.07-0.53-2.06-0.85-2.96l-0.16-0.42
			c-0.38,1.11-0.81,2.03-1.28,2.73c-0.47,0.71-1.03,1.29-1.66,1.74c-0.3,0.23-0.6,0.39-0.91,0.5c-0.31,0.1-0.62,0.22-0.92,0.35
			c-0.31,0.13-0.61,0.29-0.91,0.49c-0.3,0.2-0.57,0.32-0.8,0.34c-0.52,0.01-1.04-0.21-1.57-0.65c-0.53-0.43-0.87-0.96-1-1.58
			c-0.07-0.33-0.18-0.68-0.33-1.03c-0.15-0.35-0.26-0.72-0.33-1.1c-0.2-1.39-0.35-2.94-0.46-4.64c-0.11-1.7-0.13-3.42-0.06-5.16
			c0.07-1.74,0.25-3.42,0.55-5.04c0.3-1.62,0.73-3.04,1.3-4.27c0.24-0.42,0.5-0.82,0.79-1.22c0.28-0.4,0.66-0.62,1.13-0.66
			c0.31-0.03,0.59-0.21,0.82-0.52c0.23-0.32,0.5-0.47,0.82-0.45c0.68,0.03,1.3,0.17,1.88,0.43
			C189.75,19.51,190.25,20.06,190.68,20.89z M189.17,26.83c-0.14-0.67-0.3-1.36-0.48-2.08c-0.18-0.72-0.37-1.09-0.57-1.11
			c-0.16-0.03-0.31-0.01-0.44,0.08c-0.13,0.09-0.23,0.16-0.31,0.22c-0.49,0.29-0.89,1.08-1.19,2.36c-0.31,1.28-0.54,2.7-0.71,4.25
			c-0.16,1.56-0.26,3.06-0.3,4.5c-0.03,1.45,0.01,2.46,0.14,3.03c0.14,0.72,0.36,1.39,0.65,2.02c0.29,0.63,0.7,0.99,1.22,1.08
			c0.16,0.03,0.41-0.05,0.75-0.26c0.34-0.2,0.69-0.49,1.06-0.84c0.36-0.35,0.73-0.74,1.09-1.14c0.36-0.4,0.65-0.76,0.86-1.08
			c0.1-0.16,0.12-0.61,0.03-1.36c-0.08-0.75-0.22-1.65-0.41-2.71c-0.19-1.05-0.41-2.21-0.65-3.45
			C189.67,29.11,189.42,27.93,189.17,26.83z"/>
		<path class="st1" d="M207.13,22.14l-0.9,1.34c0.31-0.08,0.78-0.24,1.42-0.48c0.63-0.23,1.26-0.39,1.89-0.45
			c0.48,0.05,0.89,0.2,1.23,0.46c0.34,0.26,0.58,0.79,0.73,1.61c0.26,1.15,0.6,2.3,1.04,3.45c0.43,1.15,0.79,2.3,1.07,3.45
			c0.28,1.14,0.36,2.25,0.25,3.31c-0.11,1.06-0.56,2.05-1.35,2.96c-0.76,1.79-1.63,3.31-2.61,4.55c-0.98,1.25-2.05,2.03-3.22,2.34
			c-0.77,0.22-1.65,0.18-2.63-0.14c-0.98-0.31-1.73-0.96-2.25-1.93c-0.11,0.11-0.21,0.13-0.29,0.07c-0.08-0.06-0.17-0.14-0.26-0.23
			c-0.09-0.09-0.16-0.1-0.21-0.05c-0.05,0.05-0.11,0.03-0.15-0.06c-0.05-0.14-0.09-0.33-0.11-0.57l-0.01-0.15l-0.01-0.14
			c-0.11-1.7-0.13-3.42-0.06-5.16c0.07-1.74,0.26-3.44,0.57-5.12c0.31-1.67,0.77-3.25,1.38-4.76c0.6-1.5,1.43-2.87,2.47-4.1
			c0.37-0.33,0.79-0.47,1.27-0.42c0.08-0.01,0.18-0.02,0.29-0.03C206.81,21.88,206.96,21.97,207.13,22.14z M205.55,27.29
			c-0.24-0.02-0.39-0.11-0.44-0.25c-0.05-0.14-0.06-0.32-0.02-0.55c0.04-0.22,0.1-0.49,0.17-0.79c0.07-0.3,0.1-0.59,0.07-0.89
			c-0.75,1-1.29,2.18-1.63,3.54c-0.34,1.35-0.55,2.73-0.63,4.13c-0.08,1.4-0.05,2.75,0.08,4.06c0.13,1.31,0.28,2.44,0.44,3.4
			c0.15,0.82,0.34,1.47,0.58,1.96c0.24,0.49,0.56,0.76,0.96,0.82c0.44,0.1,1-0.1,1.67-0.61c0.97-0.73,1.72-1.69,2.25-2.87
			c0.53-1.18,0.94-2.42,1.23-3.72c0.1-0.69,0.16-1.52,0.17-2.47c0.02-0.95-0.09-1.83-0.32-2.64c-0.29-1.09-0.86-1.85-1.71-2.28
			C207.6,27.7,206.63,27.42,205.55,27.29z"/>
	</g>
	<g>
		<path class="st1" d="M20.89,12.81c0.1,0.42,0.17,0.97,0.2,1.66c0.03,0.69,0.06,1.33,0.08,1.94c-0.01,0.44,0.09,0.93,0.28,1.48
			c0.19,0.55,0.34,1.01,0.43,1.39c-0.09,0.84-0.15,1.86-0.18,3.06c-0.03,1.2-0.04,2.45-0.02,3.77c0.02,1.32,0.05,2.62,0.09,3.92
			c0.04,1.29,0.11,2.45,0.23,3.47c0.33,0.77,0.64,1.41,0.91,1.92c0.28,0.52,0.52,1,0.74,1.47c0.21,0.46,0.4,0.96,0.55,1.5
			c0.15,0.54,0.29,1.21,0.42,2.01c-0.2,0.34-0.32,0.54-0.36,0.62c-0.04,0.07-0.17,0.24-0.38,0.49c-0.18,0.25-0.37,0.33-0.59,0.23
			c-0.21-0.09-0.42-0.12-0.63-0.09c-0.32,0.05-0.48,0.04-0.49-0.04c-0.01-0.08-0.12-0.22-0.33-0.4c-0.66-0.58-1.23-1.19-1.71-1.82
			c-0.47-0.63-0.92-1.27-1.35-1.91c-0.42-0.64-0.82-1.3-1.19-1.97c-0.37-0.67-0.79-1.34-1.25-1.99c-0.56-0.86-1.25-1.85-2.05-2.99
			c-0.8-1.14-1.67-2.24-2.58-3.29c-0.92-1.06-1.88-1.97-2.88-2.75c-1-0.78-1.96-1.22-2.88-1.32c-0.3,3.43-0.28,6.71,0.07,9.84
			c0.35,3.12,0.96,6,1.83,8.62c0.09,0.38,0.13,0.63,0.12,0.76c-0.02,0.13-0.04,0.35-0.06,0.66c-0.02,0.35-0.03,0.78-0.05,1.28
			c-0.01,0.5-0.06,0.87-0.13,1.1c0.13,0.59,0.23,1.13,0.3,1.64c0.08,0.51,0.05,0.9-0.09,1.18c-1.45-1.96-2.58-4.2-3.38-6.73
			c-0.8-2.53-1.38-5.14-1.74-7.86s-0.55-5.4-0.56-8.06c-0.01-2.66,0.05-5.11,0.17-7.34c-0.03-0.17,0-0.3,0.07-0.4
			c0.07-0.1,0.14-0.2,0.2-0.29c0.06-0.1,0.11-0.18,0.15-0.25c0.04-0.07,0.11-0.14,0.21-0.2c0.17-0.07,0.32-0.15,0.45-0.24
			c0.13-0.09,0.28-0.15,0.46-0.18c0.21-0.04,0.37,0.09,0.49,0.37c0.12,0.28,0.22,0.5,0.32,0.66c0.14,0.19,0.29,0.61,0.46,1.25
			C5.42,19.57,5.5,20,5.5,20.22c1.58-0.02,3.04,0.42,4.38,1.29c1.34,0.87,2.56,1.93,3.67,3.17c1.11,1.24,2.11,2.53,3,3.87
			c0.89,1.34,1.66,2.5,2.31,3.47c-0.11-0.94-0.18-2.09-0.23-3.47c-0.05-1.38-0.08-2.78-0.1-4.21c-0.02-1.42-0.03-2.78-0.03-4.06
			c0-1.28,0-2.29,0-3.02c0.02-0.61,0.1-1.12,0.25-1.54c0.15-0.42,0.33-0.79,0.53-1.13c0.11-0.19,0.23-0.45,0.34-0.77
			c0.11-0.32,0.28-0.55,0.52-0.68c0.16-0.11,0.29-0.18,0.37-0.19C20.6,12.93,20.72,12.89,20.89,12.81z"/>
		<path class="st1" d="M31.67,20.39c0.17-0.03,0.42-0.09,0.73-0.19c0.32-0.1,0.67-0.17,1.04-0.19c0.37-0.03,0.74,0,1.09,0.1
			c0.35,0.09,0.65,0.33,0.88,0.72c0.67,0.55,1.29,1.38,1.85,2.5c0.56,1.12,0.97,2.32,1.24,3.61c0.27,1.29,0.35,2.59,0.24,3.9
			c-0.11,1.31-0.5,2.41-1.17,3.31c-0.26,0.41-0.58,0.93-0.97,1.57c-0.39,0.64-0.79,1.28-1.18,1.9c-0.32,0.52-0.67,0.98-1.04,1.38
			c-0.37,0.41-0.82,0.7-1.34,0.89c-0.27,0.11-0.51,0.09-0.71-0.06c-0.2-0.15-0.47-0.31-0.82-0.48c-0.25-0.12-0.55-0.22-0.88-0.28
			c-0.33-0.06-0.6-0.21-0.82-0.44c-1.93-2-3.47-4.62-4.61-7.87c-0.17-0.5-0.29-1.16-0.36-1.97c-0.07-0.81-0.08-1.67,0-2.58
			s0.24-1.82,0.52-2.74c0.27-0.92,0.66-1.73,1.16-2.44c0.47-0.7,1.13-1.31,1.98-1.81c0.25-0.24,0.55-0.37,0.88-0.39
			c0.33-0.02,0.68-0.01,1.03,0.03c0.29,0.02,0.56,0.14,0.78,0.37C31.43,19.45,31.59,19.84,31.67,20.39z M36.19,25.55
			c-0.27-0.58-0.66-1.12-1.16-1.62c-0.5-0.5-1.04-0.92-1.61-1.27c-0.57-0.35-1.15-0.63-1.75-0.83s-1.15-0.31-1.65-0.33
			c-0.26,0.04-0.56,0.21-0.92,0.52c-0.36,0.31-0.71,0.68-1.04,1.13c-0.34,0.45-0.63,0.95-0.89,1.51c-0.26,0.56-0.42,1.08-0.49,1.59
			c-0.14,1.15,0,2.39,0.41,3.72c0.41,1.34,0.98,2.5,1.73,3.48c0.74,0.99,1.61,1.67,2.61,2.05c1,0.38,2.03,0.19,3.1-0.58
			c0.51-0.28,0.93-0.82,1.27-1.62c0.34-0.8,0.58-1.67,0.73-2.62c0.15-0.95,0.2-1.9,0.15-2.85C36.62,26.9,36.46,26.13,36.19,25.55z"
			/>
		<path class="st1" d="M59.09,14.19c0.14,0.14,0.14,0.32,0,0.54l-0.29,0.34c-0.14,0.02-0.23,0.08-0.26,0.17
			c-0.03,0.09-0.11,0.18-0.24,0.26c-0.18,0.13-0.32,0.24-0.4,0.34c-0.09,0.1-0.32,0.21-0.71,0.34c-0.94-0.01-1.96,0.08-3.06,0.28
			c-1.11,0.2-2.02,0.39-2.75,0.57c0.41,1.42,0.75,2.93,1.04,4.54c0.29,1.6,0.55,3.24,0.77,4.9c0.23,1.66,0.44,3.31,0.63,4.93
			c0.19,1.62,0.4,3.16,0.64,4.6l0.13,0.82c-0.23-0.52-0.44-1.1-0.63-1.73c-0.09-0.21-0.17-0.41-0.23-0.58
			c-0.06-0.17-0.13-0.37-0.23-0.58c-0.82-2.54-1.47-5.26-1.94-8.16c-0.47-2.9-0.77-5.74-0.9-8.52c-1.58,0.52-3.1,1.05-4.56,1.58
			c-1.46,0.53-2.89,1.2-4.28,1.98c-0.16,0.09-0.32,0.17-0.47,0.23c-0.15,0.06-0.31,0.13-0.47,0.22c-0.17-0.14-0.32-0.23-0.44-0.28
			c-0.12-0.05-0.22-0.2-0.29-0.45c-0.12-0.34-0.08-0.64,0.12-0.89c0.19-0.25,0.38-0.52,0.57-0.81c0.08-0.05,0.12-0.14,0.13-0.27
			c0.01-0.13,0.02-0.27,0.04-0.4c0.02-0.14,0.04-0.26,0.05-0.38c0.01-0.12,0.06-0.2,0.14-0.25c1.3-0.77,2.7-1.45,4.18-2.02
			c1.48-0.57,2.99-1.01,4.54-1.33c1.54-0.32,3.09-0.48,4.65-0.51C56.12,13.67,57.63,13.84,59.09,14.19z"/>
	</g>
</g>
</svg>
